# xmcd
#
# Track frame offsets: 
#        182
#        19277
#        38750
#        57705
#        69702
#        86952
#        100357
#        122110
#        142492
#        161867
#        179637
#
# Disc length: 2680 seconds
#
# Revision: 3
# Processed by: cddbd v1.5.2PL0 Copyright (c) Steve Scherf et al.
# Submitted via: ExactAudioCopy v1.0b3
#
DISCID=b40a760b
DTITLE=谭咏麟 - 暴风女神 Lorelei
DYEAR=1985
DGENRE=流行音樂
TTITLE0=暴风女神 Lorelei (电影「龙兄虎弟」主题曲)
TTITLE1=世外情
TTITLE2=问
TTITLE3=楚河汉界 (电影「楚河汉界」主题曲)
TTITLE4=你要等我
TTITLE5=命运战士
TTITLE6=编织
TTITLE7=午夜骑士
TTITLE8=吻别
TTITLE9=冬之寒号
TTITLE10=朋友 (电影「龙兄虎弟」插曲)
EXTD=
EXTT0=
EXTT1=
EXTT2=
EXTT3=
EXTT4=
EXTT5=
EXTT6=
EXTT7=
EXTT8=
EXTT9=
EXTT10=
PLAYORDER=
